<mxfile host="app.diagrams.net" agent="Mozilla/5.0 (X11; Linux x86_64) AppleWebKit/537.36 (KHTML, like Gecko) Chrome/123.0.0.0 Safari/537.36" version="28.2.3">
  <diagram name="Page-1" id="7YPCfj8cVgiIxdw0NZ3B">
    <mxGraphModel dx="1036" dy="618" grid="1" gridSize="10" guides="1" tooltips="1" connect="1" arrows="1" fold="1" page="1" pageScale="1" pageWidth="827" pageHeight="1169" math="0" shadow="0">
      <root>
        <mxCell id="0" />
        <mxCell id="1" parent="0" />
        <mxCell id="efFSVCZ8uYzc7YoZeHZq-11" style="edgeStyle=orthogonalEdgeStyle;rounded=1;orthogonalLoop=1;jettySize=auto;html=1;exitX=0.5;exitY=1;exitDx=0;exitDy=0;entryX=0.5;entryY=0;entryDx=0;entryDy=0;labelBackgroundColor=none;strokeColor=#457B9D;fontColor=default;" edge="1" parent="1" source="efFSVCZ8uYzc7YoZeHZq-2">
          <mxGeometry relative="1" as="geometry">
            <mxPoint x="385" y="160" as="targetPoint" />
          </mxGeometry>
        </mxCell>
        <mxCell id="efFSVCZ8uYzc7YoZeHZq-2" value="start" style="ellipse;whiteSpace=wrap;html=1;labelBackgroundColor=none;fillColor=#A8DADC;strokeColor=#457B9D;fontColor=#1D3557;rounded=1;" vertex="1" parent="1">
          <mxGeometry x="340" y="30" width="90" height="80" as="geometry" />
        </mxCell>
        <mxCell id="efFSVCZ8uYzc7YoZeHZq-16" style="edgeStyle=orthogonalEdgeStyle;rounded=1;orthogonalLoop=1;jettySize=auto;html=1;exitX=0.5;exitY=1;exitDx=0;exitDy=0;entryX=0.5;entryY=0;entryDx=0;entryDy=0;labelBackgroundColor=none;strokeColor=#457B9D;fontColor=default;" edge="1" parent="1" source="efFSVCZ8uYzc7YoZeHZq-4" target="efFSVCZ8uYzc7YoZeHZq-5">
          <mxGeometry relative="1" as="geometry" />
        </mxCell>
        <mxCell id="efFSVCZ8uYzc7YoZeHZq-4" value="order request system confirms the order" style="rounded=1;whiteSpace=wrap;html=1;labelBackgroundColor=none;fillColor=#A8DADC;strokeColor=#457B9D;fontColor=#1D3557;" vertex="1" parent="1">
          <mxGeometry x="327.5" y="260" width="115" height="60" as="geometry" />
        </mxCell>
        <mxCell id="efFSVCZ8uYzc7YoZeHZq-17" style="edgeStyle=orthogonalEdgeStyle;rounded=1;orthogonalLoop=1;jettySize=auto;html=1;exitX=0.5;exitY=1;exitDx=0;exitDy=0;entryX=0.5;entryY=0;entryDx=0;entryDy=0;labelBackgroundColor=none;strokeColor=#457B9D;fontColor=default;" edge="1" parent="1" source="efFSVCZ8uYzc7YoZeHZq-5" target="efFSVCZ8uYzc7YoZeHZq-6">
          <mxGeometry relative="1" as="geometry" />
        </mxCell>
        <mxCell id="efFSVCZ8uYzc7YoZeHZq-53" style="edgeStyle=orthogonalEdgeStyle;rounded=1;orthogonalLoop=1;jettySize=auto;html=1;exitX=0;exitY=0.5;exitDx=0;exitDy=0;entryX=0.5;entryY=0;entryDx=0;entryDy=0;labelBackgroundColor=none;strokeColor=#457B9D;fontColor=default;" edge="1" parent="1" source="efFSVCZ8uYzc7YoZeHZq-5" target="efFSVCZ8uYzc7YoZeHZq-48">
          <mxGeometry relative="1" as="geometry">
            <mxPoint x="270" y="440" as="targetPoint" />
          </mxGeometry>
        </mxCell>
        <mxCell id="efFSVCZ8uYzc7YoZeHZq-56" value="Yes" style="edgeLabel;html=1;align=center;verticalAlign=middle;resizable=0;points=[];labelBackgroundColor=none;fontColor=#1D3557;rounded=1;" vertex="1" connectable="0" parent="efFSVCZ8uYzc7YoZeHZq-53">
          <mxGeometry x="-0.6522" y="-2" relative="1" as="geometry">
            <mxPoint as="offset" />
          </mxGeometry>
        </mxCell>
        <mxCell id="efFSVCZ8uYzc7YoZeHZq-5" value="normal order" style="rhombus;whiteSpace=wrap;html=1;labelBackgroundColor=none;fillColor=#A8DADC;strokeColor=#457B9D;fontColor=#1D3557;rounded=1;" vertex="1" parent="1">
          <mxGeometry x="330" y="350" width="120" height="80" as="geometry" />
        </mxCell>
        <mxCell id="efFSVCZ8uYzc7YoZeHZq-51" style="edgeStyle=orthogonalEdgeStyle;rounded=1;orthogonalLoop=1;jettySize=auto;html=1;exitX=0;exitY=0.5;exitDx=0;exitDy=0;labelBackgroundColor=none;strokeColor=#457B9D;fontColor=default;" edge="1" parent="1" source="efFSVCZ8uYzc7YoZeHZq-6">
          <mxGeometry relative="1" as="geometry">
            <mxPoint x="270" y="480" as="targetPoint" />
            <Array as="points">
              <mxPoint x="271" y="575" />
            </Array>
          </mxGeometry>
        </mxCell>
        <mxCell id="efFSVCZ8uYzc7YoZeHZq-57" value="Yes" style="edgeLabel;html=1;align=center;verticalAlign=middle;resizable=0;points=[];labelBackgroundColor=none;fontColor=#1D3557;rounded=1;" vertex="1" connectable="0" parent="efFSVCZ8uYzc7YoZeHZq-51">
          <mxGeometry x="-0.6883" y="-1" relative="1" as="geometry">
            <mxPoint as="offset" />
          </mxGeometry>
        </mxCell>
        <mxCell id="efFSVCZ8uYzc7YoZeHZq-6" value="special order" style="rhombus;whiteSpace=wrap;html=1;labelBackgroundColor=none;fillColor=#A8DADC;strokeColor=#457B9D;fontColor=#1D3557;rounded=1;" vertex="1" parent="1">
          <mxGeometry x="330" y="530" width="120" height="90" as="geometry" />
        </mxCell>
        <mxCell id="efFSVCZ8uYzc7YoZeHZq-7" value="end" style="ellipse;whiteSpace=wrap;html=1;labelBackgroundColor=none;fillColor=#A8DADC;strokeColor=#457B9D;fontColor=#1D3557;rounded=1;" vertex="1" parent="1">
          <mxGeometry x="340" y="680" width="110" height="50" as="geometry" />
        </mxCell>
        <mxCell id="efFSVCZ8uYzc7YoZeHZq-24" style="edgeStyle=orthogonalEdgeStyle;rounded=1;orthogonalLoop=1;jettySize=auto;html=1;exitX=0.5;exitY=1;exitDx=0;exitDy=0;entryX=0.5;entryY=0;entryDx=0;entryDy=0;labelBackgroundColor=none;strokeColor=#457B9D;fontColor=default;" edge="1" parent="1" source="efFSVCZ8uYzc7YoZeHZq-8" target="efFSVCZ8uYzc7YoZeHZq-9">
          <mxGeometry relative="1" as="geometry" />
        </mxCell>
        <mxCell id="efFSVCZ8uYzc7YoZeHZq-8" value="confirm the order" style="rounded=1;whiteSpace=wrap;html=1;labelBackgroundColor=none;fillColor=#A8DADC;strokeColor=#457B9D;fontColor=#1D3557;" vertex="1" parent="1">
          <mxGeometry x="120" y="430" width="120" height="60" as="geometry" />
        </mxCell>
        <mxCell id="efFSVCZ8uYzc7YoZeHZq-30" style="edgeStyle=orthogonalEdgeStyle;rounded=1;orthogonalLoop=1;jettySize=auto;html=1;exitX=0.5;exitY=1;exitDx=0;exitDy=0;labelBackgroundColor=none;strokeColor=#457B9D;fontColor=default;" edge="1" parent="1" source="efFSVCZ8uYzc7YoZeHZq-9">
          <mxGeometry relative="1" as="geometry">
            <mxPoint x="180" y="680" as="targetPoint" />
          </mxGeometry>
        </mxCell>
        <mxCell id="efFSVCZ8uYzc7YoZeHZq-9" value="dispatch the order" style="rounded=1;whiteSpace=wrap;html=1;labelBackgroundColor=none;fillColor=#A8DADC;strokeColor=#457B9D;fontColor=#1D3557;" vertex="1" parent="1">
          <mxGeometry x="120" y="545" width="120" height="60" as="geometry" />
        </mxCell>
        <mxCell id="efFSVCZ8uYzc7YoZeHZq-15" style="edgeStyle=orthogonalEdgeStyle;rounded=1;orthogonalLoop=1;jettySize=auto;html=1;exitX=0.5;exitY=1;exitDx=0;exitDy=0;entryX=0.5;entryY=0;entryDx=0;entryDy=0;labelBackgroundColor=none;strokeColor=#457B9D;fontColor=default;" edge="1" parent="1" source="efFSVCZ8uYzc7YoZeHZq-12" target="efFSVCZ8uYzc7YoZeHZq-4">
          <mxGeometry relative="1" as="geometry" />
        </mxCell>
        <mxCell id="efFSVCZ8uYzc7YoZeHZq-12" value="customer place order" style="shape=parallelogram;perimeter=parallelogramPerimeter;whiteSpace=wrap;html=1;fixedSize=1;labelBackgroundColor=none;fillColor=#A8DADC;strokeColor=#457B9D;fontColor=#1D3557;rounded=1;" vertex="1" parent="1">
          <mxGeometry x="310" y="160" width="160" height="70" as="geometry" />
        </mxCell>
        <mxCell id="efFSVCZ8uYzc7YoZeHZq-36" style="edgeStyle=orthogonalEdgeStyle;rounded=1;orthogonalLoop=1;jettySize=auto;html=1;exitX=1;exitY=0.5;exitDx=0;exitDy=0;entryX=0;entryY=0.5;entryDx=0;entryDy=0;labelBackgroundColor=none;strokeColor=#457B9D;fontColor=default;" edge="1" parent="1" source="efFSVCZ8uYzc7YoZeHZq-19" target="efFSVCZ8uYzc7YoZeHZq-7">
          <mxGeometry relative="1" as="geometry" />
        </mxCell>
        <mxCell id="efFSVCZ8uYzc7YoZeHZq-19" value="" style="ellipse;whiteSpace=wrap;html=1;aspect=fixed;labelBackgroundColor=none;fillColor=#A8DADC;strokeColor=#457B9D;fontColor=#1D3557;rounded=1;" vertex="1" parent="1">
          <mxGeometry x="160" y="685" width="40" height="40" as="geometry" />
        </mxCell>
        <mxCell id="efFSVCZ8uYzc7YoZeHZq-40" style="edgeStyle=orthogonalEdgeStyle;rounded=1;orthogonalLoop=1;jettySize=auto;html=1;exitX=0.5;exitY=1;exitDx=0;exitDy=0;entryX=0.445;entryY=-0.06;entryDx=0;entryDy=0;entryPerimeter=0;labelBackgroundColor=none;strokeColor=#457B9D;fontColor=default;" edge="1" parent="1" source="efFSVCZ8uYzc7YoZeHZq-6" target="efFSVCZ8uYzc7YoZeHZq-7">
          <mxGeometry relative="1" as="geometry" />
        </mxCell>
        <mxCell id="efFSVCZ8uYzc7YoZeHZq-41" value="NO" style="edgeLabel;html=1;align=center;verticalAlign=middle;resizable=0;points=[];labelBackgroundColor=none;fontColor=#1D3557;rounded=1;" vertex="1" connectable="0" parent="efFSVCZ8uYzc7YoZeHZq-40">
          <mxGeometry x="-0.3448" y="4" relative="1" as="geometry">
            <mxPoint as="offset" />
          </mxGeometry>
        </mxCell>
        <mxCell id="efFSVCZ8uYzc7YoZeHZq-54" style="edgeStyle=orthogonalEdgeStyle;rounded=1;orthogonalLoop=1;jettySize=auto;html=1;exitX=0;exitY=0.5;exitDx=0;exitDy=0;entryX=1;entryY=0.5;entryDx=0;entryDy=0;labelBackgroundColor=none;strokeColor=#457B9D;fontColor=default;" edge="1" parent="1" source="efFSVCZ8uYzc7YoZeHZq-48" target="efFSVCZ8uYzc7YoZeHZq-8">
          <mxGeometry relative="1" as="geometry" />
        </mxCell>
        <mxCell id="efFSVCZ8uYzc7YoZeHZq-48" value="" style="ellipse;whiteSpace=wrap;html=1;aspect=fixed;labelBackgroundColor=none;fillColor=#A8DADC;strokeColor=#457B9D;fontColor=#1D3557;rounded=1;" vertex="1" parent="1">
          <mxGeometry x="260" y="450" width="30" height="30" as="geometry" />
        </mxCell>
      </root>
    </mxGraphModel>
  </diagram>
</mxfile>
